<svg width="29" height="30" viewBox="0 0 29 30" fill="none" xmlns="http://www.w3.org/2000/svg">
<path d="M28.8213 5.60365C28.6462 5.34443 28.3667 5.19103 28.0695 5.19103H7.13379C7.09323 5.19103 7.05273 5.19369 7.01373 5.19937L6.15212 2.51744C6.06282 2.24007 5.86617 2.01897 5.61345 1.91154L1.27114 0.0695816C0.792567 -0.132737 0.252536 0.12109 0.0645866 0.637222C-0.123039 1.15363 0.111963 1.73711 0.590275 1.94006L4.5341 3.61299L9.36141 18.6379C9.14835 18.718 8.9678 18.8946 8.88557 19.1415L7.48983 23.328C7.4043 23.5847 7.43954 23.8699 7.58511 24.093C7.73048 24.316 7.96691 24.4488 8.21937 24.4488H8.93612C8.49195 24.9825 8.21937 25.6854 8.21937 26.4583C8.21937 28.1205 9.47181 29.4726 11.0108 29.4726C12.5499 29.4726 13.8023 28.1205 13.8023 26.4583C13.8023 25.6854 13.5297 24.9825 13.0856 24.4488H19.1716C18.7272 24.9825 18.4546 25.6854 18.4546 26.4583C18.4546 28.1205 19.7068 29.4726 21.2461 29.4726C22.7854 29.4726 24.0376 28.1205 24.0376 26.4583C24.0376 25.6854 23.765 24.9825 23.3209 24.4488H24.1927C24.621 24.4488 24.9681 24.074 24.9681 23.6115C24.9681 23.1491 24.6209 22.7743 24.1927 22.7743H9.32267L10.1871 20.1816C10.2987 20.2324 10.4193 20.2624 10.5455 20.2624H24.1925C24.5971 20.2624 24.9551 19.9802 25.0784 19.5644L28.9554 6.50263C29.0464 6.1968 28.9964 5.86287 28.8213 5.60365ZM11.0108 27.798C10.3266 27.798 9.77022 27.1972 9.77022 26.4583C9.77022 25.7195 10.3266 25.1186 11.0108 25.1186C11.6951 25.1186 12.2515 25.7195 12.2515 26.4583C12.2515 27.1972 11.6951 27.798 11.0108 27.798ZM21.2461 27.798C20.5618 27.798 20.0054 27.1972 20.0054 26.4583C20.0054 25.7195 20.5618 25.1186 21.2461 25.1186C21.9302 25.1186 22.4867 25.7195 22.4867 26.4583C22.4867 27.1972 21.9302 27.798 21.2461 27.798ZM26.1235 9.46122H21.3753V7.20054H26.7944L26.1235 9.46122ZM24.7562 14.0663H21.3753V11.4707H25.5268L24.7562 14.0663ZM15.2236 14.0663V11.4707H19.5143V14.0663H15.2236ZM19.5143 16.0759V18.2528H15.2236V16.0759H19.5143ZM9.02854 11.4707H13.3628V14.0663H9.86257L9.02854 11.4707ZM15.2236 9.46122V7.20054H19.5143V9.46122H15.2236ZM13.3627 7.20054V9.46122H8.38272L7.65643 7.20054H13.3627ZM10.5083 16.0759H13.3627V18.2528H11.2077L10.5083 16.0759ZM21.3753 18.2529V16.076H24.1601L23.514 18.2529H21.3753Z" fill="white"/>
</svg>
