<svg width="29" height="29" viewBox="0 0 29 29" fill="none" xmlns="http://www.w3.org/2000/svg">
<path d="M28.8214 6.04236C28.6463 5.80229 28.3667 5.66023 28.0696 5.66023H7.1338C7.09323 5.66023 7.05274 5.66269 7.01373 5.66795L6.15212 3.18423C6.06282 2.92736 5.86617 2.7226 5.61345 2.62311L1.27114 0.917283C0.792568 0.729918 0.252536 0.964985 0.0645866 1.44297C-0.123039 1.92122 0.111963 2.46157 0.590275 2.64952L4.53411 4.19881L9.36142 18.1133C9.14835 18.1875 8.9678 18.351 8.88557 18.5797L7.48984 22.4568C7.4043 22.6945 7.43954 22.9586 7.58511 23.1652C7.73049 23.3718 7.96692 23.4948 8.21938 23.4948H8.93613C8.49195 23.989 8.21938 24.64 8.21938 25.3558C8.21938 26.8951 9.47181 28.1472 11.0108 28.1472C12.5499 28.1472 13.8023 26.8951 13.8023 25.3558C13.8023 24.64 13.5297 23.989 13.0856 23.4948H19.1716C18.7272 23.989 18.4546 24.64 18.4546 25.3558C18.4546 26.8951 19.7068 28.1472 21.2461 28.1472C22.7854 28.1472 24.0376 26.8951 24.0376 25.3558C24.0376 24.64 23.765 23.989 23.3209 23.4948H24.1927C24.621 23.4948 24.9681 23.1476 24.9681 22.7193C24.9681 22.2911 24.6209 21.944 24.1927 21.944H9.32267L10.1871 19.5429C10.2987 19.5899 10.4193 19.6177 10.5455 19.6177H24.1925C24.5971 19.6177 24.9552 19.3564 25.0784 18.9714L28.9554 6.87489C29.0464 6.59167 28.9965 6.28242 28.8214 6.04236ZM11.0108 26.5964C10.3266 26.5964 9.77022 26.04 9.77022 25.3558C9.77022 24.6715 10.3266 24.1151 11.0108 24.1151C11.6951 24.1151 12.2515 24.6715 12.2515 25.3558C12.2515 26.04 11.6951 26.5964 11.0108 26.5964ZM21.2461 26.5964C20.5618 26.5964 20.0054 26.04 20.0054 25.3558C20.0054 24.6715 20.5618 24.1151 21.2461 24.1151C21.9302 24.1151 22.4867 24.6715 22.4867 25.3558C22.4867 26.04 21.9302 26.5964 21.2461 26.5964ZM26.1235 9.61483H21.3753V7.52123H26.7944L26.1235 9.61483ZM24.7562 13.8795H21.3753V11.4758H25.5268L24.7562 13.8795ZM15.2236 13.8795V11.4758H19.5143V13.8795H15.2236ZM19.5143 15.7407V17.7567H15.2236V15.7407H19.5143ZM9.02855 11.4758H13.3628V13.8795H9.86257L9.02855 11.4758ZM15.2236 9.61483V7.52123H19.5143V9.61483H15.2236ZM13.3627 7.52123V9.61483H8.38273L7.65644 7.52123H13.3627ZM10.5083 15.7407H13.3627V17.7567H11.2077L10.5083 15.7407ZM21.3753 17.7568V15.7407H24.1601L23.514 17.7568H21.3753Z" fill="black"/>
</svg>
