<svg width="32" height="28" viewBox="0 0 32 28" fill="none" xmlns="http://www.w3.org/2000/svg">
<path d="M32 4.43528C29.9871 4.52805 30.031 4.52048 29.8035 4.53953L30.9956 1.13499C30.9956 1.13499 27.2744 2.50388 26.3311 2.74876C23.8535 0.52195 20.1709 0.423561 17.5381 2.04173C15.3821 3.36716 14.2249 5.64329 14.6108 8.30369C10.4148 7.72141 6.87939 5.7324 4.08813 2.37937L3.20532 1.31907L2.54565 2.53049C1.71191 4.06126 1.43506 5.8115 1.76587 7.45872C1.90161 8.1345 2.13232 8.77903 2.4519 9.38255L1.69458 9.08909L1.60474 10.3545C1.51367 11.6399 1.94165 13.1404 2.74976 14.3679C2.97729 14.7136 3.27026 15.0932 3.6416 15.4678L3.25024 15.4077L3.72778 16.8576C4.35547 18.7627 5.65918 20.2365 7.35107 21.0559C5.66138 21.7729 4.29639 22.2304 2.05273 22.9685L0 23.6433L1.896 24.6799C2.6189 25.0752 5.17334 26.3952 7.69726 26.7912C13.3076 27.6711 19.6243 26.9546 23.8767 23.1247C27.4585 19.8989 28.6338 15.3103 28.3896 10.5351C28.3528 9.81223 28.5508 9.12229 28.9473 8.59275C29.7415 7.53245 31.9951 4.44236 32 4.43528ZM27.448 7.4697C26.7895 8.34885 26.4597 9.47166 26.5188 10.6308C26.7651 15.4475 25.4546 19.1828 22.6233 21.7326C19.3159 24.7114 13.9812 25.8806 7.98755 24.9404C6.9021 24.7702 5.78027 24.3891 4.85181 24.0085C6.73291 23.3613 8.18555 22.7844 10.5315 21.674L13.8064 20.124L10.1907 19.8926C8.45874 19.7817 7.0166 18.9424 6.13013 17.5796C6.60083 17.5522 7.05469 17.4761 7.50659 17.3501L10.9551 16.3896L7.47778 15.5381C5.78809 15.1242 4.82495 14.1133 4.31445 13.3379C3.97925 12.8283 3.76025 12.3064 3.62891 11.8252C3.97754 11.9187 4.38403 11.9853 5.03955 12.0503L8.25806 12.3686L5.70801 10.3794C3.8706 8.94627 3.13428 6.79319 3.67407 4.72337C9.40845 10.6711 16.1414 10.2241 16.8191 10.3813C16.6699 8.93235 16.666 8.92893 16.627 8.79099C15.759 5.72288 17.6611 4.16502 18.519 3.63767C20.311 2.53635 23.1555 2.37034 25.1257 4.18479C25.5513 4.57639 26.1267 4.73045 26.6653 4.59666C27.1487 4.47654 27.5454 4.34934 27.9338 4.21091L27.1252 6.52L28.1575 6.52073C27.9626 6.78196 27.729 7.0947 27.448 7.4697Z" fill="#FFF500"/>
</svg>
